<svg xmlns="http://www.w3.org/2000/svg" viewBox="0 0 1780.78 1780.47"><defs><style>.cls-1{isolation:isolate;}.cls-2{fill:#ffdb86;}</style></defs><g id="Ellipse_11" data-name="Ellipse 11" class="cls-1"><g id="Ellipse_11-2" data-name="Ellipse 11"><ellipse class="cls-2" cx="890.39" cy="890.23" rx="890.39" ry="890.23"/></g></g><g id="rec" class="cls-1"><g id="rec-2" data-name="rec"><path d="M877.5,910q27-37.46,27-83.92,0-59.62-42.59-102.29T758.38,681.09H475.12v464.65h88V971.67H706.44l102.5,174.07h102.5l-106-182.39Q850.49,947.41,877.5,910ZM758.38,883.6H563.08V769.16h195.3q24.24,0,41.21,17t17,39.87q0,23.6-17,40.57T758.38,883.6Zm281.17,60.33H1202.3V853.77H1039.55V769.16h281.18V681.09H951.6v464.65h376.06v-88.07H1039.55Zm678,56.87q-55.41,63.81-125.35,63.8-63,0-107-44t-44-107.84q0-62.41,44-106.11t107-43.69q74.1,0,125.35,63.11l72-49.93q-70.65-99.87-193.92-102.64-101.81,0-172.1,69.7t-70.3,171q0,99.18,70,169.56t169,70.4q121.88,0,198.76-105.42Z" transform="translate(-228 -252)"/></g></g><g id="cat" class="cls-1"><g id="cat-2" data-name="cat"><path d="M813.78,1465.88q-55.41,63.81-125.35,63.8-63,0-107-44t-44-107.84q0-62.41,44-106.11t107-43.69q74.1,0,125.35,63.11l72-49.93q-70.63-99.87-193.92-102.64-101.8,0-172.1,69.69t-70.3,171q0,99.18,70,169.56t169,70.39q121.89,0,198.77-105.41Zm281.87-319.71L876.11,1610.82h97.65l48.48-101.25h236.17l47.09,101.25h97.65l-219.54-464.65ZM1063.1,1420.1,1140,1258.51l76.18,161.59Zm333.81-273.93v88.07H1552v376.58h88V1234.24h155.83v-88.07Z" transform="translate(-228 -252)"/></g></g><g id="studio" class="cls-1"><g id="studio-2" data-name="studio"><path d="M895.63,1678.79q-17.93-1.82-25.36-5t-7.07-8.62q-.36-6,7.88-8.35a59.19,59.19,0,0,1,17.49-2.17q21.38,0,37.5,9.43l12.69-18.5q-23.93-14.34-48.56-14.34-21,.38-35.51,9.35t-14.86,24.58q-.18,14.52,10.15,23.68t40.94,12.43q17.4,1.82,25.55,6.07t7.61,11q-.18,6.9-7.88,10.89t-23.83,4.53q-26.26-.18-46.38-14l-13.23,18.87Q858.13,1757,893.1,1757q25.36,0,39.22-10.35t14-28.12q0-13.61-11.24-25.4T895.63,1678.79Zm55.81-22.5H992v98.52h23v-98.52h40.77v-23H951.44Zm205.82,41a39.19,39.19,0,0,1-4.71,19.6,32.45,32.45,0,0,1-12.23,12.16,33.09,33.09,0,0,1-16.76,4.53,33.91,33.91,0,0,1-17-4.53,32.21,32.21,0,0,1-12.32-12.16,39.19,39.19,0,0,1-4.71-19.6v-64h-23v64q0,18,7.61,31.57a54.11,54.11,0,0,0,20.83,20.42,57.16,57.16,0,0,0,28.63,7.71,58.12,58.12,0,0,0,49.19-27.94q7.34-12.52,7.34-31.76v-64h-22.83Zm89.14-64h-53.27v121.56h53.27a61,61,0,0,0,60.88-61q0-25-17.85-42.82A58.77,58.77,0,0,0,1246.4,1633.25ZM1273,1720.7a36,36,0,0,1-26.55,11.07h-30.26v-75.48h30.26a36,36,0,0,1,26.55,11.07,36.35,36.35,0,0,1,11,26.49A36.77,36.77,0,0,1,1273,1720.7Zm47.19,34.11h23V1633.25h-23Zm140.24-105q-19-18.51-44.39-18.51-26.82,0-45.12,18.06t-18.3,44.54q0,25.76,18.75,44.45T1416,1757q25.9,0,44.66-18.69t18.75-44.82Q1479.4,1668.27,1460.38,1649.76Zm-15.86,72a40.43,40.43,0,0,1-57.07,0,38.5,38.5,0,0,1-11.87-28.31,36.53,36.53,0,0,1,11.87-27.57,41.57,41.57,0,0,1,57.07.18q11.87,11.43,11.87,27.39A38.5,38.5,0,0,1,1444.52,1721.79Z" transform="translate(-228 -252)"/></g></g></svg>